<svg height="492pt" viewBox="-12 0 492 492.09796" width="492pt" xmlns="http://www.w3.org/2000/svg" xmlns:xlink="http://www.w3.org/1999/xlink">

<linearGradient id="lg1">
<stop offset=".3" stop-color="#1fb0ff"/>
<stop offset=".4" stop-color="#52c1ff"/>
<stop offset=".7" stop-color="#8ad6ff"/>
<stop offset=".8" stop-color="#abe1ff"/>
</linearGradient>

<linearGradient id="linear0" gradientUnits="userSpaceOnUse" x1="407.42698" x2="407.42698" xlink:href="#lg1" y1="480.121955" y2="15.600955"/><linearGradient id="linear1" gradientUnits="userSpaceOnUse" x1="393.13898" x2="393.13898" xlink:href="#lg1" y1="480.121955" y2="15.600955"/><linearGradient id="linear3" gradientUnits="userSpaceOnUse" x1="25.12098" x2="25.12098" xlink:href="#lg1" y1="480.121955" y2="15.600955"/><linearGradient id="linear4" gradientUnits="userSpaceOnUse" x1="39.40998" x2="39.40998" xlink:href="#lg1" y1="480.121955" y2="15.600955"/><linearGradient id="linear6" gradientUnits="userSpaceOnUse" x1="275.28398" x2="275.28398" xlink:href="#lg1" y1="480.121955" y2="15.600955"/><linearGradient id="linear7" gradientUnits="userSpaceOnUse" x1="281.48498" x2="281.48498" xlink:href="#lg1" y1="480.121955" y2="15.600955"/><linearGradient id="linear8" gradientUnits="userSpaceOnUse" x1="155.69698" x2="155.69698" xlink:href="#lg1" y1="480.121955" y2="15.600955"/><linearGradient id="linear9" gradientUnits="userSpaceOnUse" x1="155.20298" x2="155.20298" xlink:href="#lg1" y1="480.121955" y2="15.600955"/><linearGradient id="linear10" gradientUnits="userSpaceOnUse" x1="273.54298" x2="273.54298" xlink:href="#lg1" y1="480.121955" y2="15.600955"/><path d="M 382.4 123.1 c 0 3.3 2.7 6 6 6 h 38.1 c 3.3 0 6 -2.7 6 -6 c 0 -3.3 -2.7 -6 -6 -6 h -38.1 c -3.3 0 -6 2.7 -6 6 z m 0 0" fill="url(#linear0)"/><path d="M 374.1 83.4 c 1.3 0 2.6 -0.4 3.6 -1.2 l 38.1 -28.6 c 2.6 -2 3.1 -5.7 1.1 -8.3 s -5.6 -3.2 -8.3 -1.3 l -38.1 28.6 c -2.1 1.6 -2.9 4.2 -2.1 6.7 c 0.8 2.5 3.1 4.1 5.7 4.1 z m 0 0" fill="url(#linear1)"/><path d="M 370.5 173.6 l 38.1 28.6 c 2.7 1.9 6.3 1.3 8.3 -1.3 s 1.5 -6.3 -1.1 -8.3 l -38.1 -28.6 c -1.7 -1.3 -4 -1.7 -6 -0.8 c -2 0.8 -3.4 2.7 -3.6 4.9 c -0.2 2.2 0.7 4.3 2.5 5.6 z m 0 0" fill="url(#linear1)"/><path d="M 50.2 123.1 c 0 -3.3 -2.7 -6 -6 -6 h -38.1 c -3.3 0 -6 2.7 -6 6 c 0 3.3 2.7 6 6 6 h 38.1 c 3.3 0 6 -2.7 6 -6 z m 0 0" fill="url(#linear3)"/><path d="M 54.9 164 l -38.1 28.6 c -2.6 2 -3.2 5.8 -1.2 8.4 c 2 2.7 5.8 3.2 8.4 1.2 l 38.1 -28.6 c 2.6 -2 3.2 -5.7 1.2 -8.4 c -2 -2.7 -5.8 -3.2 -8.4 -1.2 z m 0 0" fill="url(#linear4)"/><path d="M 62.1 72.6 l -38.2 -28.6 c -2.7 -1.9 -6.3 -1.3 -8.3 1.3 c -2 2.6 -1.5 6.3 1.1 8.3 l 38.2 28.6 c 2.6 2 6.4 1.5 8.4 -1.2 c 2 -2.7 1.4 -6.4 -1.2 -8.4 z m 0 0" fill="url(#linear4)"/><path d="M 264.7 169.9 c 3 -2.2 6.9 -2.8 10.5 -1.6 c 3.6 1.2 6.3 3.9 7.5 7.5 c 0.6 1.7 0.7 3.5 0.5 5.2 c -0.4 3.3 1.9 6.3 5.2 6.7 c 3.3 0.4 6.3 -1.9 6.7 -5.2 c 1.3 -10 -3.9 -19.8 -12.9 -24.3 c -0.1 0 -0.1 -0.1 -0.2 -0.1 c -1.3 -3.8 -0.6 -8 1.9 -11.1 c 1.4 -1.7 1.7 -3.9 1 -6 c -0.8 -2 -2.6 -3.5 -4.7 -3.8 c -2.1 -0.3 -4.3 0.5 -5.6 2.2 c -3.7 4.6 -5.5 10.4 -5.1 16.3 c -4.2 0.4 -8.3 1.9 -11.7 4.4 c -2.7 1.9 -3.3 5.7 -1.4 8.4 c 1.9 2.7 5.7 3.3 8.4 1.4 z m 0 0" fill="url(#linear6)"/><path d="M 269.3 102.8 c 1.4 0.5 2.9 0.8 4.3 1 c 0.1 3.1 0.9 6.2 2.4 8.9 c 1.6 2.9 5.3 4 8.2 2.4 c 2.9 -1.6 4 -5.3 2.4 -8.2 c -1.5 -2.7 -1.2 -6.1 0.7 -8.5 c 1.9 -2.5 5.1 -3.6 8.1 -2.8 c 3.2 0.8 6.5 -1.1 7.3 -4.3 c 0.8 -3.2 -1.1 -6.5 -4.3 -7.3 c -8 -2.1 -16.5 1.1 -21.2 7.9 c -2.5 0.4 -5 -0.5 -6.7 -2.3 c -2.3 -2.4 -6.1 -2.4 -8.5 -0.1 c -2.4 2.3 -2.4 6.1 -0.1 8.5 c 2.1 2.1 4.6 3.8 7.4 4.8 z m 0 0" fill="url(#linear7)"/><path d="M 142.6 187.6 c 3.3 -0.4 5.6 -3.4 5.2 -6.7 c -0.5 -4 1.1 -8 4.2 -10.6 c 3.1 -2.6 7.3 -3.4 11.2 -2.1 c 1.1 0.4 2.2 0.9 3.2 1.6 c 2.7 1.9 6.4 1.3 8.4 -1.4 c 1.9 -2.7 1.3 -6.4 -1.4 -8.4 c -3.5 -2.5 -7.5 -4 -11.7 -4.4 c 0.4 -5.9 -1.5 -11.7 -5.1 -16.3 c -1.3 -1.7 -3.5 -2.6 -5.6 -2.2 c -2.1 0.3 -3.9 1.8 -4.7 3.8 c -0.8 2 -0.4 4.3 1 6 c 2.5 3.1 3.2 7.3 1.9 11.1 c -0.1 0 -0.1 0.1 -0.2 0.1 c -9 4.5 -14.2 14.3 -12.9 24.3 c 0.2 1.6 1 3 2.3 4 s 2.9 1.4 4.4 1.2 z m 0 0" fill="url(#linear8)"/><path d="M 141.4 81.4 c 2.6 -0.7 5.4 0.1 7.3 1.9 c 1.9 1.8 2.8 4.6 2.3 7.2 c -0.2 0.8 -0.4 1.5 -0.8 2.2 c -1.1 1.9 -1 4.2 0.1 6 c 1.1 1.8 3.1 3 5.3 2.9 c 2.2 0 4.1 -1.2 5.1 -3.1 c 1.5 -2.7 2.3 -5.8 2.4 -8.9 c 4.5 -0.5 8.6 -2.6 11.8 -5.8 c 2.3 -2.4 2.3 -6.2 -0.1 -8.5 c -2.4 -2.3 -6.2 -2.3 -8.5 0.1 c -1.7 1.8 -4.2 2.6 -6.7 2.3 c -4.7 -6.8 -13.2 -10 -21.2 -7.9 c -2.1 0.5 -3.8 2.1 -4.3 4.2 c -0.6 2.1 0 4.3 1.5 5.8 c 1.5 1.5 3.7 2.1 5.8 1.6 z m 0 0" fill="url(#linear9)"/><path d="M 463 306.6 c 3.3 0 6 -2.7 6 -6 c 0 -3.3 -2.7 -6 -6 -6 h -16.5 v -10.5 c 0.1 -1.5 -0.5 -3 -1.6 -4 c -1.1 -1.1 -2.5 -1.6 -4.1 -1.5 h -36.4 c -18.9 -0.1 -34.6 14.4 -35.9 33.3 c -28.9 2.9 -51 27.3 -51 56.3 v 65.9 c 0 26.2 -21.3 47.5 -47.5 47.5 s -47.5 -21.3 -47.5 -47.5 v -35.5 h 34.7 c 7.2 0.1 14.1 -2.7 19.2 -7.7 c 5.1 -5 8 -11.9 8.1 -19.1 v -69.1 c 0.2 -19.8 6.6 -38.9 18.4 -54.8 c 14 -4.4 23.5 -17.3 23.6 -32 v -9.1 c 15 -6.4 26.4 -21.7 26.4 -39.5 c 0 -12 -5.1 -23.4 -13.9 -31.4 c 6.6 -6.9 9.9 -16.4 8.8 -25.9 c -1 -9.5 -6.2 -18.1 -14.2 -23.4 c -1 -0.7 -2.1 -1.3 -3.2 -1.8 c 3.4 -14.2 -0.7 -29.2 -10.9 -39.8 c -10.2 -10.5 -25.1 -15.1 -39.4 -12.1 c 0.1 -0.7 0.1 -1.5 0.1 -2.2 c 0.1 -10.4 -5.4 -20 -14.4 -25.2 c -9 -5.2 -20 -5.2 -29 0 c -9 5.2 -14.5 14.8 -14.4 25.2 v 189 c 0 12.9 7.4 24.7 19.1 30.3 c 11.7 5.6 25.5 3.9 35.5 -4.3 c 3.3 1.7 6.8 2.9 10.5 3.4 c -8.8 14.5 -13.9 30.8 -14.9 47.7 h -112.9 c -1 -17 -6.1 -33.4 -14.8 -48 c 3.1 -0.6 6.1 -1.7 8.8 -3.1 c 10 8.2 23.9 9.8 35.5 4.3 s 19.1 -17.3 19.1 -30.3 v -189 c 0 -16 -13 -28.9 -28.9 -28.9 c -16 0 -28.9 12.9 -28.9 28.9 c 0 0.8 0 1.5 0.1 2.2 c -14.3 -3 -29.2 1.5 -39.4 12 c -10.2 10.5 -14.3 25.6 -10.8 39.8 c -9.1 4.6 -15.5 13.3 -17.2 23.4 s 1.6 20.4 8.7 27.7 c -8.9 8.1 -13.9 19.5 -14 31.4 c 0 17.9 11.5 33.2 26.5 39.5 v 9.1 c 0 15.8 11.4 29 26.1 32.6 c 11.5 15.8 17.8 34.8 17.9 54.3 v 69 c -0.1 7.1 2.7 14 7.7 19.1 c 5 5.1 11.9 7.9 19 7.8 h 35.2 v 35.5 c 0 32.9 26.6 59.5 59.5 59.5 s 59.5 -26.6 59.5 -59.5 v -65.9 c 0.1 -22.5 16.8 -41.5 39.1 -44.5 c 1.7 18.6 17.2 32.8 35.9 32.9 h 36.4 c 1.6 0 3 -0.7 4.1 -1.9 c 1.1 -1.2 1.6 -2.7 1.5 -4.2 v -10.9 h 16.5 c 3.3 0 6 -2.7 6 -6 c 0 -3.3 -2.7 -6 -6 -6 h -16.5 v -21 z m -228.5 -87.1 v -189 c 0 -7 4.3 -13.3 10.9 -15.8 c 6.6 -2.5 14 -0.7 18.7 4.6 c 4.7 5.3 5.6 12.8 2.3 19.1 c -0.9 0.6 -1.9 1.2 -2.8 1.9 c -1.8 1.3 -2.7 3.4 -2.5 5.5 c 0.2 2.2 1.6 4 3.6 4.9 c 2 0.9 4.3 0.6 6 -0.8 c 11.7 -8.6 27.8 -7.8 38.7 1.8 c 10.8 9.7 13.4 25.6 6.1 38.2 c -1.7 2.9 -0.7 6.5 2.2 8.2 c 2.9 1.7 6.5 0.7 8.2 -2.2 c 0 0 0 -0.1 0 -0.1 c 0.3 0.2 0.7 0.4 1 0.6 c 5.3 3.5 8.7 9.4 9 15.7 c 0.3 6.4 -2.4 12.6 -7.3 16.6 c -5.8 -2.8 -12.2 -4.3 -18.7 -4.3 c -3.3 0 -6 2.7 -6 6 c 0 3.3 2.7 6 6 6 c 17 0 30.7 13.7 30.7 30.7 c 0 17 -13.7 30.7 -30.7 30.7 c -3.3 0 -6 2.7 -6 6 c 0.1 3.3 2.8 6 6.2 6 c 1.4 0 2.3 -0.1 4.3 -0.2 v 6.1 c -0.1 11.9 -9.8 21.5 -21.7 21.5 c -11.9 0 -21.6 -9.6 -21.7 -21.5 c 0 -3.3 -2.7 -6 -6 -6 c -3.3 0 -6 2.7 -6 6 c 0 8.1 2.9 15.8 8.2 21.9 c -6.6 4.1 -15 4.4 -21.8 0.6 c -6.8 -3.8 -11 -11 -11 -18.8 z m -118 -3.7 v -6.1 c 2 0.1 2.9 0.2 4.2 0.2 c 3.3 0 6 -2.7 6.1 -6 c 0 -1.6 -0.6 -3.1 -1.7 -4.2 c -1.1 -1.1 -2.6 -1.8 -4.2 -1.8 c -16.9 0 -30.7 -13.8 -30.7 -30.7 c 0 -16.9 13.8 -30.7 30.7 -30.7 c 3.3 0 6 -2.7 6 -6 c 0 -3.3 -2.7 -6 -6 -6 c -6.5 0 -12.9 1.5 -18.7 4.3 c -4.9 -4.1 -7.6 -10.2 -7.3 -16.6 c 0.3 -6.4 3.7 -12.2 9 -15.8 c 0.3 -0.2 0.7 -0.4 1 -0.6 c 0 0 0 0.1 0 0.1 c 1.7 2.9 5.3 3.8 8.2 2.2 c 2.9 -1.7 3.8 -5.3 2.2 -8.2 c -7.3 -12.6 -4.7 -28.5 6.1 -38.2 c 10.8 -9.7 27 -10.4 38.7 -1.8 c 2.7 2 6.4 1.4 8.4 -1.3 c 2 -2.7 1.4 -6.4 -1.2 -8.4 c -0.9 -0.7 -1.8 -1.3 -2.8 -1.9 c -3.2 -6.2 -2.3 -13.8 2.4 -19.1 c 4.7 -5.2 12.1 -7.1 18.7 -4.6 c 6.6 2.5 10.9 8.8 10.9 15.8 v 189 c 0 7.8 -4.2 15 -11.1 18.8 c -6.8 3.8 -15.2 3.6 -21.8 -0.6 c 5.3 -6.1 8.2 -13.9 8.2 -21.9 c 0 -3.3 -2.7 -6 -6 -6 s -6 2.7 -6 6 c -0.1 11.9 -9.8 21.5 -21.7 21.5 s -21.6 -9.6 -21.7 -21.5 z m 44 155.9 v -3.1 h 73.3 c 3.3 0 6 -2.7 6 -6 c 0 -3.3 -2.7 -6 -6 -6 h -73.3 v -18 h 18 c 3.3 0 6 -2.7 6 -6 c 0 -3.3 -2.7 -6 -6 -6 h -18 v -18 h 112 v 18 h -72 c -3.3 0 -6 2.7 -6 6 c 0 3.3 2.7 6 6 6 h 72 v 18 h -16.7 c -3.3 0 -6 2.7 -6 6 c 0 3.3 2.7 6 6 6 h 16.7 v 3.1 c 0 4 -1.7 7.8 -4.5 10.6 c -2.9 2.8 -6.8 4.3 -10.8 4.2 h -81.9 c -4 0.1 -7.8 -1.5 -10.6 -4.3 c -2.8 -2.8 -4.3 -6.6 -4.2 -10.6 z m 274 -27.1 h -30 c -13.3 -0.1 -24 -10.8 -24 -24.1 v -6.4 c 0 -13.2 10.7 -23.5 24 -23.5 h 30 z m 0 0" fill="url(#linear10)"/></svg>