<?xml version="1.0" encoding="iso-8859-1"?>
<!-- Generator: Adobe Illustrator 19.0.0, SVG Export Plug-In . SVG Version: 6.00 Build 0)  -->
<svg version="1.1" id="Capa_1" xmlns="http://www.w3.org/2000/svg" xmlns:xlink="http://www.w3.org/1999/xlink" x="0px" y="0px"
	 viewBox="0 0 512 512" style="enable-background:new 0 0 512 512;" xml:space="preserve">
<path style="fill:#87CED9;" d="M423.724,0H88.276c-19.5,0-35.31,15.81-35.31,35.31v211.862h406.069V35.31
	C459.034,15.81,443.224,0,423.724,0z"/>
<path style="fill:#7DC6D1;" d="M423.724,0h-47.078L129.474,247.172h329.56V35.31C459.034,15.81,443.224,0,423.724,0z"/>
<g>
	<polygon style="fill:#4398D1;" points="306.441,361.931 291.31,308.966 220.69,308.966 205.559,361.931 167.724,361.931 
		167.724,379.586 344.276,379.586 344.276,361.931 	"/>
	<path style="fill:#4398D1;" d="M52.966,273.655c0,19.5,15.81,35.31,35.31,35.31h335.448c19.5,0,35.31-15.81,35.31-35.31v-26.483
		H52.966V273.655z"/>
	<rect x="79.448" y="406.069" style="fill:#4398D1;" width="247.172" height="105.931"/>
	<path style="fill:#4398D1;" d="M397.241,406.069L397.241,406.069c19.5,0,35.31,15.81,35.31,35.31v35.31
		c0,19.5-15.81,35.31-35.31,35.31l0,0c-19.5,0-35.31-15.81-35.31-35.31v-35.31C361.931,421.879,377.741,406.069,397.241,406.069z"/>
</g>
<g>
	<rect x="105.931" y="467.862" style="fill:#3B86B8;" width="17.655" height="17.655"/>
	<rect x="105.931" y="432.552" style="fill:#3B86B8;" width="17.655" height="17.655"/>
	<rect x="141.241" y="432.552" style="fill:#3B86B8;" width="17.655" height="17.655"/>
	<rect x="176.552" y="432.552" style="fill:#3B86B8;" width="17.655" height="17.655"/>
	<rect x="247.172" y="432.552" style="fill:#3B86B8;" width="17.655" height="17.655"/>
	<rect x="211.862" y="432.552" style="fill:#3B86B8;" width="17.655" height="17.655"/>
	<rect x="282.483" y="467.862" style="fill:#3B86B8;" width="17.655" height="17.655"/>
	<rect x="282.483" y="432.552" style="fill:#3B86B8;" width="17.655" height="17.655"/>
	<rect x="141.241" y="467.862" style="fill:#3B86B8;" width="123.586" height="17.655"/>
	<rect x="388.414" y="432.552" style="fill:#3B86B8;" width="17.655" height="17.655"/>
</g>
<g>
	
		<rect x="191.727" y="123.75" transform="matrix(-0.2751 0.9614 -0.9614 -0.2751 453.8392 -77.0437)" style="fill:#3077A6;" width="128.475" height="17.646"/>
	<path style="fill:#3077A6;" d="M197.385,183.331l-52.966-44.138c-3.743-3.125-4.246-8.686-1.13-12.429
		c0.344-0.406,0.715-0.786,1.13-1.13l52.966-44.138l11.299,13.559l-44.826,37.358l44.826,37.358L197.385,183.331z"/>
	<path style="fill:#3077A6;" d="M314.615,183.331l-11.299-13.559l44.826-37.358l-44.826-37.358l11.299-13.559l52.966,44.138
		c3.743,3.125,4.246,8.686,1.13,12.429c-0.344,0.406-0.715,0.786-1.13,1.13L314.615,183.331z"/>
</g>
<polygon style="fill:#3B86B8;" points="296.351,326.621 291.31,308.966 220.69,308.966 215.649,326.621 "/>
<g>
</g>
<g>
</g>
<g>
</g>
<g>
</g>
<g>
</g>
<g>
</g>
<g>
</g>
<g>
</g>
<g>
</g>
<g>
</g>
<g>
</g>
<g>
</g>
<g>
</g>
<g>
</g>
<g>
</g>
</svg>
