<svg height="512" viewBox="0 0 64 64" width="512" xmlns="http://www.w3.org/2000/svg" xmlns:xlink="http://www.w3.org/1999/xlink"><linearGradient id="New_Gradient_Swatch_3" gradientUnits="userSpaceOnUse" x1="14" x2="14" y1="65.214" y2="2.708"><stop offset="0" stop-color="#006df0"/><stop offset="1" stop-color="#00e7f0"/></linearGradient><linearGradient id="New_Gradient_Swatch_3-2" x1="18" x2="18" xlink:href="#New_Gradient_Swatch_3" y1="65.214" y2="2.708"/><linearGradient id="New_Gradient_Swatch_3-3" x1="22" x2="22" xlink:href="#New_Gradient_Swatch_3" y1="65.214" y2="2.708"/><linearGradient id="New_Gradient_Swatch_3-4" x1="26" x2="26" xlink:href="#New_Gradient_Swatch_3" y1="65.214" y2="2.708"/><linearGradient id="New_Gradient_Swatch_3-5" x1="30" x2="30" xlink:href="#New_Gradient_Swatch_3" y1="65.214" y2="2.708"/><linearGradient id="New_Gradient_Swatch_3-6" x1="34" x2="34" xlink:href="#New_Gradient_Swatch_3" y1="65.214" y2="2.708"/><linearGradient id="New_Gradient_Swatch_3-7" x1="38" x2="38" xlink:href="#New_Gradient_Swatch_3" y1="65.214" y2="2.708"/><linearGradient id="New_Gradient_Swatch_3-8" x1="42" x2="42" xlink:href="#New_Gradient_Swatch_3" y1="65.214" y2="2.708"/><linearGradient id="New_Gradient_Swatch_3-9" x1="46" x2="46" xlink:href="#New_Gradient_Swatch_3" y1="65.214" y2="2.708"/><linearGradient id="New_Gradient_Swatch_3-10" x1="50" x2="50" xlink:href="#New_Gradient_Swatch_3" y1="65.214" y2="2.708"/><linearGradient id="New_Gradient_Swatch_3-24" x1="32" x2="32" xlink:href="#New_Gradient_Swatch_3" y1="65.214" y2="2.708"/><linearGradient id="New_Gradient_Swatch_3-28" x1="13" x2="13" xlink:href="#New_Gradient_Swatch_3" y1="65.214" y2="2.708"/><linearGradient id="New_Gradient_Swatch_3-29" x1="17" x2="17" xlink:href="#New_Gradient_Swatch_3" y1="65.214" y2="2.708"/><linearGradient id="New_Gradient_Swatch_3-30" x1="21" x2="21" xlink:href="#New_Gradient_Swatch_3" y1="65.214" y2="2.708"/><linearGradient id="New_Gradient_Swatch_3-31" x1="15" x2="15" xlink:href="#New_Gradient_Swatch_3" y1="65.214" y2="2.708"/><linearGradient id="New_Gradient_Swatch_3-32" x1="20.5" x2="20.5" xlink:href="#New_Gradient_Swatch_3" y1="65.214" y2="2.708"/><linearGradient id="New_Gradient_Swatch_3-33" x1="31.5" x2="31.5" xlink:href="#New_Gradient_Swatch_3" y1="65.214" y2="2.708"/><linearGradient id="New_Gradient_Swatch_3-36" x1="28" x2="28" xlink:href="#New_Gradient_Swatch_3" y1="65.214" y2="2.708"/><linearGradient id="New_Gradient_Swatch_3-37" x1="29" x2="29" xlink:href="#New_Gradient_Swatch_3" y1="65.214" y2="2.708"/><linearGradient id="New_Gradient_Swatch_3-38" x1="45.5" x2="45.5" xlink:href="#New_Gradient_Swatch_3" y1="65.214" y2="2.708"/><linearGradient id="New_Gradient_Swatch_3-39" x1="24" x2="24" xlink:href="#New_Gradient_Swatch_3" y1="65.214" y2="2.708"/><linearGradient id="New_Gradient_Swatch_3-40" x1="33" x2="33" xlink:href="#New_Gradient_Swatch_3" y1="65.214" y2="2.708"/><linearGradient id="New_Gradient_Swatch_3-41" x1="43" x2="43" xlink:href="#New_Gradient_Swatch_3" y1="65.214" y2="2.708"/><linearGradient id="New_Gradient_Swatch_3-45" x1="35" x2="35" xlink:href="#New_Gradient_Swatch_3" y1="65.214" y2="2.708"/><g id="Programing-2" data-name="Programing"><path d="m13 50h2v2h-2z" fill="url(#New_Gradient_Swatch_3)"/><path d="m17 50h2v2h-2z" fill="url(#New_Gradient_Swatch_3-2)"/><path d="m21 50h2v2h-2z" fill="url(#New_Gradient_Swatch_3-3)"/><path d="m25 50h2v2h-2z" fill="url(#New_Gradient_Swatch_3-4)"/><path d="m29 50h2v2h-2z" fill="url(#New_Gradient_Swatch_3-5)"/><path d="m33 50h2v2h-2z" fill="url(#New_Gradient_Swatch_3-6)"/><path d="m37 50h2v2h-2z" fill="url(#New_Gradient_Swatch_3-7)"/><path d="m41 50h2v2h-2z" fill="url(#New_Gradient_Swatch_3-8)"/><path d="m45 50h2v2h-2z" fill="url(#New_Gradient_Swatch_3-9)"/><path d="m49 50h2v2h-2z" fill="url(#New_Gradient_Swatch_3-10)"/><path d="m13 53h2v2h-2z" fill="url(#New_Gradient_Swatch_3)"/><path d="m17 53h2v2h-2z" fill="url(#New_Gradient_Swatch_3-2)"/><path d="m21 53h2v2h-2z" fill="url(#New_Gradient_Swatch_3-3)"/><path d="m25 53h2v2h-2z" fill="url(#New_Gradient_Swatch_3-4)"/><path d="m29 53h2v2h-2z" fill="url(#New_Gradient_Swatch_3-5)"/><path d="m33 53h2v2h-2z" fill="url(#New_Gradient_Swatch_3-6)"/><path d="m37 53h2v2h-2z" fill="url(#New_Gradient_Swatch_3-7)"/><path d="m41 53h2v2h-2z" fill="url(#New_Gradient_Swatch_3-8)"/><path d="m45 53h2v2h-2z" fill="url(#New_Gradient_Swatch_3-9)"/><path d="m49 53h2v2h-2z" fill="url(#New_Gradient_Swatch_3-10)"/><path d="m13 56h2v2h-2z" fill="url(#New_Gradient_Swatch_3)"/><path d="m17 56h2v2h-2z" fill="url(#New_Gradient_Swatch_3-2)"/><path d="m21 56h2v2h-2z" fill="url(#New_Gradient_Swatch_3-3)"/><path d="m25 56h14v2h-14z" fill="url(#New_Gradient_Swatch_3-24)"/><path d="m41 56h2v2h-2z" fill="url(#New_Gradient_Swatch_3-8)"/><path d="m45 56h2v2h-2z" fill="url(#New_Gradient_Swatch_3-9)"/><path d="m49 56h2v2h-2z" fill="url(#New_Gradient_Swatch_3-10)"/><path d="m12 5h2v2h-2z" fill="url(#New_Gradient_Swatch_3-28)"/><path d="m16 5h2v2h-2z" fill="url(#New_Gradient_Swatch_3-29)"/><path d="m20 5h2v2h-2z" fill="url(#New_Gradient_Swatch_3-30)"/><path d="m15 15a1 1 0 0 0 -1 1v19a1 1 0 0 0 2 0v-19a1 1 0 0 0 -1-1z" fill="url(#New_Gradient_Swatch_3-31)"/><path d="m22 19a1 1 0 0 0 .556-1.832l-1.756-1.168 1.752-1.168a1 1 0 1 0 -1.11-1.664l-3 2a1 1 0 0 0 0 1.664l3 2a1 1 0 0 0 .558.168z" fill="url(#New_Gradient_Swatch_3-32)"/><path d="m29.168 18.555a1 1 0 0 0 1.387.277l3-2a1 1 0 0 0 0-1.664l-3-2a1 1 0 0 0 -1.11 1.664l1.755 1.168-1.752 1.168a1 1 0 0 0 -.28 1.387z" fill="url(#New_Gradient_Swatch_3-33)"/><path d="m24.684 19.949a1 1 0 0 0 1.264-.633l2-6a1 1 0 1 0 -1.9-.632l-2 6a1 1 0 0 0 .636 1.265z" fill="url(#New_Gradient_Swatch_3-4)"/><path d="m19 22h6v2h-6z" fill="url(#New_Gradient_Swatch_3-3)"/><path d="m27 22h2v2h-2z" fill="url(#New_Gradient_Swatch_3-36)"/><path d="m23 26h12v2h-12z" fill="url(#New_Gradient_Swatch_3-37)"/><path d="m41 26h9v2h-9z" fill="url(#New_Gradient_Swatch_3-38)"/><path d="m23 30h2v2h-2z" fill="url(#New_Gradient_Swatch_3-39)"/><path d="m27 30h12v2h-12z" fill="url(#New_Gradient_Swatch_3-40)"/><path d="m41 30h4v2h-4z" fill="url(#New_Gradient_Swatch_3-41)"/><path d="m19 34h6v2h-6z" fill="url(#New_Gradient_Swatch_3-3)"/><path d="m27 34h2v2h-2z" fill="url(#New_Gradient_Swatch_3-36)"/><path d="m37 26h2v2h-2z" fill="url(#New_Gradient_Swatch_3-7)"/><path d="m59 19h-3v-14a3 3 0 0 0 -3-3h-42a3 3 0 0 0 -3 3v32a3 3 0 0 0 3 3h42a3 3 0 0 0 3-3v-16h3a1 1 0 0 1 1 1v19a1 1 0 0 1 -1 1h-39a3.548 3.548 0 0 0 -2.469.575 1.926 1.926 0 0 0 -.531 1.425v2h-5a3 3 0 0 0 -3 3v10a3 3 0 0 0 3 3h40a3 3 0 0 0 3-3v-10a3 3 0 0 0 -3-3h-33v-2c.188-.022 40 0 40 0a3 3 0 0 0 3-3v-19a3 3 0 0 0 -3-3zm-48-15h42a1 1 0 0 1 1 1v3h-44v-3a1 1 0 0 1 1-1zm42 34h-42a1 1 0 0 1 -1-1v-27h44v27a1 1 0 0 1 -1 1zm0 11v10a1 1 0 0 1 -1 1h-40a1 1 0 0 1 -1-1v-10a1 1 0 0 1 1-1h40a1 1 0 0 1 1 1z" fill="url(#New_Gradient_Swatch_3-45)"/></g></svg>